# Blender v2.83.18 OBJ File: 'pylon.blend'
# www.blender.org
mtllib pylon.mtl
o Cylinder
v 0.000000 2.097090 -0.150000
v 0.000000 7.902910 -0.150000
v 0.029264 2.097090 -0.147118
v 0.029264 7.902910 -0.147118
v 0.057403 2.097090 -0.138582
v 0.057403 7.902910 -0.138582
v 0.083336 2.097090 -0.124720
v 0.083336 7.902910 -0.124720
v 0.106066 2.097090 -0.106066
v 0.106066 7.902910 -0.106066
v 0.124720 2.097090 -0.083336
v 0.124720 7.902910 -0.083336
v 0.138582 2.097090 -0.057403
v 0.138582 7.902910 -0.057403
v 0.147118 2.097090 -0.029264
v 0.147118 7.902910 -0.029264
v 0.150000 2.097090 -0.000000
v 0.150000 7.902910 -0.000000
v 0.147118 2.097090 0.029264
v 0.147118 7.902910 0.029264
v 0.138582 2.097090 0.057402
v 0.138582 7.902910 0.057402
v 0.124720 2.097090 0.083336
v 0.124720 7.902910 0.083336
v 0.106066 2.097090 0.106066
v 0.106066 7.902910 0.106066
v 0.083336 2.097090 0.124720
v 0.083336 7.902910 0.124720
v 0.057402 2.097090 0.138582
v 0.057402 7.902910 0.138582
v 0.029264 2.097090 0.147118
v 0.029264 7.902910 0.147118
v -0.000000 2.097090 0.150000
v -0.000000 7.902910 0.150000
v -0.029264 2.097090 0.147118
v -0.029264 7.902910 0.147118
v -0.057403 2.097090 0.138582
v -0.057403 7.902910 0.138582
v -0.083336 2.097090 0.124720
v -0.083336 7.902910 0.124720
v -0.106066 2.097090 0.106066
v -0.106066 7.902910 0.106066
v -0.124721 2.097090 0.083335
v -0.124721 7.902910 0.083335
v -0.138582 2.097090 0.057402
v -0.138582 7.902910 0.057402
v -0.147118 2.097090 0.029263
v -0.147118 7.902910 0.029263
v -0.150000 2.097090 -0.000000
v -0.150000 7.902910 -0.000000
v -0.147118 2.097090 -0.029264
v -0.147118 7.902910 -0.029264
v -0.138582 2.097090 -0.057403
v -0.138582 7.902910 -0.057403
v -0.124720 2.097090 -0.083336
v -0.124720 7.902910 -0.083336
v -0.106066 2.097090 -0.106066
v -0.106066 7.902910 -0.106066
v -0.083335 2.097090 -0.124721
v -0.083335 7.902910 -0.124721
v -0.057402 2.097090 -0.138582
v -0.057402 7.902910 -0.138582
v -0.029263 2.097090 -0.147118
v -0.029263 7.902910 -0.147118
vt 1.000000 0.500000
vt 1.000000 1.000000
vt 0.968750 1.000000
vt 0.968750 0.500000
vt 0.937500 1.000000
vt 0.937500 0.500000
vt 0.906250 1.000000
vt 0.906250 0.500000
vt 0.875000 1.000000
vt 0.875000 0.500000
vt 0.843750 1.000000
vt 0.843750 0.500000
vt 0.812500 1.000000
vt 0.812500 0.500000
vt 0.781250 1.000000
vt 0.781250 0.500000
vt 0.750000 1.000000
vt 0.750000 0.500000
vt 0.718750 1.000000
vt 0.718750 0.500000
vt 0.687500 1.000000
vt 0.687500 0.500000
vt 0.656250 1.000000
vt 0.656250 0.500000
vt 0.625000 1.000000
vt 0.625000 0.500000
vt 0.593750 1.000000
vt 0.593750 0.500000
vt 0.562500 1.000000
vt 0.562500 0.500000
vt 0.531250 1.000000
vt 0.531250 0.500000
vt 0.500000 1.000000
vt 0.500000 0.500000
vt 0.468750 1.000000
vt 0.468750 0.500000
vt 0.437500 1.000000
vt 0.437500 0.500000
vt 0.406250 1.000000
vt 0.406250 0.500000
vt 0.375000 1.000000
vt 0.375000 0.500000
vt 0.343750 1.000000
vt 0.343750 0.500000
vt 0.312500 1.000000
vt 0.312500 0.500000
vt 0.281250 1.000000
vt 0.281250 0.500000
vt 0.250000 1.000000
vt 0.250000 0.500000
vt 0.218750 1.000000
vt 0.218750 0.500000
vt 0.187500 1.000000
vt 0.187500 0.500000
vt 0.156250 1.000000
vt 0.156250 0.500000
vt 0.125000 1.000000
vt 0.125000 0.500000
vt 0.093750 1.000000
vt 0.093750 0.500000
vt 0.062500 1.000000
vt 0.062500 0.500000
vt 0.296822 0.485388
vt 0.250000 0.490000
vt 0.203179 0.485389
vt 0.158156 0.471731
vt 0.116663 0.449553
vt 0.080295 0.419706
vt 0.050447 0.383337
vt 0.028269 0.341844
vt 0.014612 0.296822
vt 0.010000 0.250000
vt 0.014611 0.203179
vt 0.028269 0.158156
vt 0.050447 0.116663
vt 0.080294 0.080294
vt 0.116663 0.050447
vt 0.158156 0.028269
vt 0.203178 0.014612
vt 0.250000 0.010000
vt 0.296822 0.014612
vt 0.341844 0.028269
vt 0.383337 0.050447
vt 0.419706 0.080294
vt 0.449553 0.116663
vt 0.471731 0.158156
vt 0.485388 0.203178
vt 0.490000 0.250000
vt 0.485388 0.296822
vt 0.471731 0.341844
vt 0.449553 0.383337
vt 0.419706 0.419706
vt 0.383337 0.449553
vt 0.341844 0.471731
vt 0.031250 1.000000
vt 0.031250 0.500000
vt 0.000000 1.000000
vt 0.000000 0.500000
vt 0.750000 0.490000
vt 0.796822 0.485388
vt 0.841844 0.471731
vt 0.883337 0.449553
vt 0.919706 0.419706
vt 0.949553 0.383337
vt 0.971731 0.341844
vt 0.985388 0.296822
vt 0.990000 0.250000
vt 0.985388 0.203178
vt 0.971731 0.158156
vt 0.949553 0.116663
vt 0.919706 0.080294
vt 0.883337 0.050447
vt 0.841844 0.028269
vt 0.796822 0.014612
vt 0.750000 0.010000
vt 0.703178 0.014612
vt 0.658156 0.028269
vt 0.616663 0.050447
vt 0.580294 0.080294
vt 0.550447 0.116663
vt 0.528269 0.158156
vt 0.514611 0.203179
vt 0.510000 0.250000
vt 0.514612 0.296822
vt 0.528269 0.341844
vt 0.550447 0.383337
vt 0.580295 0.419706
vt 0.616663 0.449553
vt 0.658156 0.471731
vt 0.703179 0.485389
vn 0.0980 0.0000 -0.9952
vn 0.2903 0.0000 -0.9569
vn 0.4714 0.0000 -0.8819
vn 0.6344 0.0000 -0.7730
vn 0.7730 0.0000 -0.6344
vn 0.8819 0.0000 -0.4714
vn 0.9569 0.0000 -0.2903
vn 0.9952 0.0000 -0.0980
vn 0.9952 0.0000 0.0980
vn 0.9569 0.0000 0.2903
vn 0.8819 0.0000 0.4714
vn 0.7730 0.0000 0.6344
vn 0.6344 0.0000 0.7730
vn 0.4714 0.0000 0.8819
vn 0.2903 0.0000 0.9569
vn 0.0980 0.0000 0.9952
vn -0.0980 0.0000 0.9952
vn -0.2903 0.0000 0.9569
vn -0.4714 0.0000 0.8819
vn -0.6344 0.0000 0.7730
vn -0.7730 0.0000 0.6344
vn -0.8819 0.0000 0.4714
vn -0.9569 0.0000 0.2903
vn -0.9952 0.0000 0.0980
vn -0.9952 0.0000 -0.0980
vn -0.9569 0.0000 -0.2903
vn -0.8819 0.0000 -0.4714
vn -0.7730 0.0000 -0.6344
vn -0.6344 0.0000 -0.7730
vn -0.4714 0.0000 -0.8819
vn 0.0000 1.0000 0.0000
vn -0.2903 0.0000 -0.9569
vn -0.0980 0.0000 -0.9952
vn 0.0000 -1.0000 0.0000
usemtl Material.002
s off
f 1/1/1 2/2/1 4/3/1 3/4/1
f 3/4/2 4/3/2 6/5/2 5/6/2
f 5/6/3 6/5/3 8/7/3 7/8/3
f 7/8/4 8/7/4 10/9/4 9/10/4
f 9/10/5 10/9/5 12/11/5 11/12/5
f 11/12/6 12/11/6 14/13/6 13/14/6
f 13/14/7 14/13/7 16/15/7 15/16/7
f 15/16/8 16/15/8 18/17/8 17/18/8
f 17/18/9 18/17/9 20/19/9 19/20/9
f 19/20/10 20/19/10 22/21/10 21/22/10
f 21/22/11 22/21/11 24/23/11 23/24/11
f 23/24/12 24/23/12 26/25/12 25/26/12
f 25/26/13 26/25/13 28/27/13 27/28/13
f 27/28/14 28/27/14 30/29/14 29/30/14
f 29/30/15 30/29/15 32/31/15 31/32/15
f 31/32/16 32/31/16 34/33/16 33/34/16
f 33/34/17 34/33/17 36/35/17 35/36/17
f 35/36/18 36/35/18 38/37/18 37/38/18
f 37/38/19 38/37/19 40/39/19 39/40/19
f 39/40/20 40/39/20 42/41/20 41/42/20
f 41/42/21 42/41/21 44/43/21 43/44/21
f 43/44/22 44/43/22 46/45/22 45/46/22
f 45/46/23 46/45/23 48/47/23 47/48/23
f 47/48/24 48/47/24 50/49/24 49/50/24
f 49/50/25 50/49/25 52/51/25 51/52/25
f 51/52/26 52/51/26 54/53/26 53/54/26
f 53/54/27 54/53/27 56/55/27 55/56/27
f 55/56/28 56/55/28 58/57/28 57/58/28
f 57/58/29 58/57/29 60/59/29 59/60/29
f 59/60/30 60/59/30 62/61/30 61/62/30
f 4/63/31 2/64/31 64/65/31 62/66/31 60/67/31 58/68/31 56/69/31 54/70/31 52/71/31 50/72/31 48/73/31 46/74/31 44/75/31 42/76/31 40/77/31 38/78/31 36/79/31 34/80/31 32/81/31 30/82/31 28/83/31 26/84/31 24/85/31 22/86/31 20/87/31 18/88/31 16/89/31 14/90/31 12/91/31 10/92/31 8/93/31 6/94/31
f 61/62/32 62/61/32 64/95/32 63/96/32
f 63/96/33 64/95/33 2/97/33 1/98/33
f 1/99/34 3/100/34 5/101/34 7/102/34 9/103/34 11/104/34 13/105/34 15/106/34 17/107/34 19/108/34 21/109/34 23/110/34 25/111/34 27/112/34 29/113/34 31/114/34 33/115/34 35/116/34 37/117/34 39/118/34 41/119/34 43/120/34 45/121/34 47/122/34 49/123/34 51/124/34 53/125/34 55/126/34 57/127/34 59/128/34 61/129/34 63/130/34
o Cone
v 0.000000 8.523565 -0.700000
v -0.136563 8.523565 -0.686550
v -0.267878 8.523565 -0.646716
v -0.388899 8.523566 -0.582029
v -0.494975 8.523566 -0.494975
v -0.582029 8.523566 -0.388899
v -0.646716 8.523566 -0.267878
v -0.686550 8.523566 -0.136563
v -0.700000 8.523566 -0.000000
v -0.686550 8.523566 0.136563
v -0.646716 8.523566 0.267878
v -0.582029 8.523566 0.388899
v -0.494975 8.523566 0.494975
v -0.388899 8.523566 0.582029
v -0.267878 8.523565 0.646716
v -0.136563 8.523565 0.686550
v 0.000000 8.523565 0.700000
v 0.136564 8.523565 0.686550
v 0.267879 8.523565 0.646716
v 0.388900 8.523565 0.582029
v 0.494975 8.523565 0.494974
v 0.582029 8.523565 0.388899
v 0.646716 8.523565 0.267878
v -0.000000 7.476434 0.000000
v 0.686550 8.523565 0.136563
v 0.700000 8.523565 -0.000001
v 0.686550 8.523565 -0.136564
v 0.646715 8.523565 -0.267879
v 0.582028 8.523565 -0.388900
v 0.494974 8.523565 -0.494975
v 0.388898 8.523565 -0.582029
v 0.267878 8.523565 -0.646716
v 0.136562 8.523565 -0.686550
vt 0.250000 0.490000
vt 0.250000 0.250000
vt 0.296822 0.485388
vt 0.341844 0.471731
vt 0.383337 0.449553
vt 0.419706 0.419706
vt 0.449553 0.383337
vt 0.471731 0.341844
vt 0.485388 0.296822
vt 0.490000 0.250000
vt 0.485388 0.203178
vt 0.471731 0.158156
vt 0.449553 0.116663
vt 0.419706 0.080294
vt 0.383337 0.050447
vt 0.341844 0.028269
vt 0.296822 0.014612
vt 0.250000 0.010000
vt 0.203178 0.014612
vt 0.158156 0.028269
vt 0.116663 0.050447
vt 0.080294 0.080294
vt 0.050447 0.116663
vt 0.028269 0.158156
vt 0.014611 0.203179
vt 0.010000 0.250000
vt 0.014612 0.296822
vt 0.028269 0.341844
vt 0.050447 0.383337
vt 0.080295 0.419706
vt 0.116663 0.449553
vt 0.158156 0.471731
vt 0.203179 0.485389
vt 0.750000 0.490000
vt 0.796822 0.485388
vt 0.841844 0.471731
vt 0.883337 0.449553
vt 0.919706 0.419706
vt 0.949553 0.383337
vt 0.971731 0.341844
vt 0.985388 0.296822
vt 0.990000 0.250000
vt 0.985388 0.203178
vt 0.971731 0.158156
vt 0.949553 0.116663
vt 0.919706 0.080294
vt 0.883337 0.050447
vt 0.841844 0.028269
vt 0.796822 0.014612
vt 0.750000 0.010000
vt 0.703178 0.014612
vt 0.658156 0.028269
vt 0.616663 0.050447
vt 0.580294 0.080294
vt 0.550447 0.116663
vt 0.528269 0.158156
vt 0.514611 0.203179
vt 0.510000 0.250000
vt 0.514612 0.296822
vt 0.528269 0.341844
vt 0.550447 0.383337
vt 0.580295 0.419706
vt 0.616663 0.449553
vt 0.658156 0.471731
vt 0.703179 0.485389
vn -0.0816 -0.5539 -0.8286
vn -0.2417 -0.5539 -0.7967
vn -0.3925 -0.5539 -0.7343
vn -0.5282 -0.5539 -0.6436
vn -0.6436 -0.5539 -0.5282
vn -0.7343 -0.5539 -0.3925
vn -0.7967 -0.5539 -0.2417
vn -0.8286 -0.5539 -0.0816
vn -0.8286 -0.5539 0.0816
vn -0.7967 -0.5539 0.2417
vn -0.7343 -0.5539 0.3925
vn -0.6436 -0.5539 0.5282
vn -0.5282 -0.5539 0.6436
vn -0.3925 -0.5539 0.7343
vn -0.2417 -0.5539 0.7967
vn -0.0816 -0.5539 0.8286
vn 0.0816 -0.5539 0.8286
vn 0.2417 -0.5539 0.7967
vn 0.3925 -0.5539 0.7343
vn 0.5282 -0.5539 0.6436
vn 0.6436 -0.5539 0.5282
vn 0.7343 -0.5539 0.3925
vn 0.7967 -0.5539 0.2417
vn 0.8286 -0.5539 0.0816
vn 0.8286 -0.5539 -0.0816
vn 0.7967 -0.5539 -0.2417
vn 0.7343 -0.5539 -0.3925
vn 0.6436 -0.5539 -0.5282
vn 0.5282 -0.5539 -0.6436
vn 0.3925 -0.5539 -0.7343
vn 0.2417 -0.5539 -0.7967
vn 0.0816 -0.5539 -0.8286
vn 0.0000 1.0000 0.0000
usemtl Material.001
s off
f 65/131/35 88/132/35 66/133/35
f 66/133/36 88/132/36 67/134/36
f 67/134/37 88/132/37 68/135/37
f 68/135/38 88/132/38 69/136/38
f 69/136/39 88/132/39 70/137/39
f 70/137/40 88/132/40 71/138/40
f 71/138/41 88/132/41 72/139/41
f 72/139/42 88/132/42 73/140/42
f 73/140/43 88/132/43 74/141/43
f 74/141/44 88/132/44 75/142/44
f 75/142/45 88/132/45 76/143/45
f 76/143/46 88/132/46 77/144/46
f 77/144/47 88/132/47 78/145/47
f 78/145/48 88/132/48 79/146/48
f 79/146/49 88/132/49 80/147/49
f 80/147/50 88/132/50 81/148/50
f 81/148/51 88/132/51 82/149/51
f 82/149/52 88/132/52 83/150/52
f 83/150/53 88/132/53 84/151/53
f 84/151/54 88/132/54 85/152/54
f 85/152/55 88/132/55 86/153/55
f 86/153/56 88/132/56 87/154/56
f 87/154/57 88/132/57 89/155/57
f 89/155/58 88/132/58 90/156/58
f 90/156/59 88/132/59 91/157/59
f 91/157/60 88/132/60 92/158/60
f 92/158/61 88/132/61 93/159/61
f 93/159/62 88/132/62 94/160/62
f 94/160/63 88/132/63 95/161/63
f 95/161/64 88/132/64 96/162/64
f 96/162/65 88/132/65 97/163/65
f 97/163/66 88/132/66 65/131/66
f 65/164/67 66/165/67 67/166/67 68/167/67 69/168/67 70/169/67 71/170/67 72/171/67 73/172/67 74/173/67 75/174/67 76/175/67 77/176/67 78/177/67 79/178/67 80/179/67 81/180/67 82/181/67 83/182/67 84/183/67 85/184/67 86/185/67 87/186/67 89/187/67 90/188/67 91/189/67 92/190/67 93/191/67 94/192/67 95/193/67 96/194/67 97/195/67
o Cone.001
v 0.000000 8.513885 -1.000000
v 0.195090 8.513885 -0.980785
v 0.382683 8.513885 -0.923880
v 0.555570 8.513885 -0.831470
v 0.707107 8.513885 -0.707107
v 0.831470 8.513885 -0.555570
v 0.923880 8.513885 -0.382683
v 0.980785 8.513885 -0.195090
v 1.000000 8.513885 -0.000000
v 0.980785 8.513885 0.195090
v 0.923880 8.513885 0.382683
v 0.831470 8.513885 0.555570
v 0.707107 8.513885 0.707107
v 0.555570 8.513885 0.831470
v 0.382683 8.513885 0.923880
v 0.195090 8.513885 0.980785
v -0.000000 8.513885 1.000000
v -0.195091 8.513885 0.980785
v -0.382684 8.513885 0.923879
v -0.555571 8.513885 0.831469
v -0.707107 8.513885 0.707106
v -0.831470 8.513885 0.555570
v -0.923880 8.513885 0.382683
v 0.000000 9.156738 0.000000
v -0.980785 8.513885 0.195089
v -1.000000 8.513885 -0.000001
v -0.980785 8.513885 -0.195091
v -0.923879 8.513885 -0.382684
v -0.831469 8.513885 -0.555571
v -0.707106 8.513885 -0.707108
v -0.555569 8.513885 -0.831470
v -0.382682 8.513885 -0.923880
v -0.195089 8.513885 -0.980786
vt 0.250000 0.490000
vt 0.250000 0.250000
vt 0.296822 0.485388
vt 0.341844 0.471731
vt 0.383337 0.449553
vt 0.419706 0.419706
vt 0.449553 0.383337
vt 0.471731 0.341844
vt 0.485388 0.296822
vt 0.490000 0.250000
vt 0.485388 0.203178
vt 0.471731 0.158156
vt 0.449553 0.116663
vt 0.419706 0.080294
vt 0.383337 0.050447
vt 0.341844 0.028269
vt 0.296822 0.014612
vt 0.250000 0.010000
vt 0.203178 0.014612
vt 0.158156 0.028269
vt 0.116663 0.050447
vt 0.080294 0.080294
vt 0.050447 0.116663
vt 0.028269 0.158156
vt 0.014611 0.203179
vt 0.010000 0.250000
vt 0.014612 0.296822
vt 0.028269 0.341844
vt 0.050447 0.383337
vt 0.080295 0.419706
vt 0.116663 0.449553
vt 0.158156 0.471731
vt 0.203179 0.485389
vt 0.750000 0.490000
vt 0.796822 0.485388
vt 0.841844 0.471731
vt 0.883337 0.449553
vt 0.919706 0.419706
vt 0.949553 0.383337
vt 0.971731 0.341844
vt 0.985388 0.296822
vt 0.990000 0.250000
vt 0.985388 0.203178
vt 0.971731 0.158156
vt 0.949553 0.116663
vt 0.919706 0.080294
vt 0.883337 0.050447
vt 0.841844 0.028269
vt 0.796822 0.014612
vt 0.750000 0.010000
vt 0.703178 0.014612
vt 0.658156 0.028269
vt 0.616663 0.050447
vt 0.580294 0.080294
vt 0.550447 0.116663
vt 0.528269 0.158156
vt 0.514611 0.203179
vt 0.510000 0.250000
vt 0.514612 0.296822
vt 0.528269 0.341844
vt 0.550447 0.383337
vt 0.580295 0.419706
vt 0.616663 0.449553
vt 0.658156 0.471731
vt 0.703179 0.485389
vn 0.0532 0.8400 -0.5400
vn 0.1575 0.8400 -0.5192
vn 0.2558 0.8400 -0.4785
vn 0.3442 0.8400 -0.4194
vn 0.4194 0.8400 -0.3442
vn 0.4785 0.8400 -0.2558
vn 0.5192 0.8400 -0.1575
vn 0.5400 0.8400 -0.0532
vn 0.5400 0.8400 0.0532
vn 0.5192 0.8400 0.1575
vn 0.4785 0.8400 0.2558
vn 0.4194 0.8400 0.3442
vn 0.3442 0.8400 0.4194
vn 0.2558 0.8400 0.4785
vn 0.1575 0.8400 0.5192
vn 0.0532 0.8400 0.5400
vn -0.0532 0.8400 0.5400
vn -0.1575 0.8400 0.5192
vn -0.2558 0.8400 0.4785
vn -0.3442 0.8400 0.4194
vn -0.4194 0.8400 0.3442
vn -0.4785 0.8400 0.2558
vn -0.5192 0.8400 0.1575
vn -0.5400 0.8400 0.0532
vn -0.5400 0.8400 -0.0532
vn -0.5192 0.8400 -0.1575
vn -0.4785 0.8400 -0.2558
vn -0.4194 0.8400 -0.3442
vn -0.3442 0.8400 -0.4194
vn -0.2558 0.8400 -0.4785
vn -0.1575 0.8400 -0.5192
vn -0.0532 0.8400 -0.5400
vn 0.0000 -1.0000 -0.0000
usemtl Material.004
s off
f 98/196/68 121/197/68 99/198/68
f 99/198/69 121/197/69 100/199/69
f 100/199/70 121/197/70 101/200/70
f 101/200/71 121/197/71 102/201/71
f 102/201/72 121/197/72 103/202/72
f 103/202/73 121/197/73 104/203/73
f 104/203/74 121/197/74 105/204/74
f 105/204/75 121/197/75 106/205/75
f 106/205/76 121/197/76 107/206/76
f 107/206/77 121/197/77 108/207/77
f 108/207/78 121/197/78 109/208/78
f 109/208/79 121/197/79 110/209/79
f 110/209/80 121/197/80 111/210/80
f 111/210/81 121/197/81 112/211/81
f 112/211/82 121/197/82 113/212/82
f 113/212/83 121/197/83 114/213/83
f 114/213/84 121/197/84 115/214/84
f 115/214/85 121/197/85 116/215/85
f 116/215/86 121/197/86 117/216/86
f 117/216/87 121/197/87 118/217/87
f 118/217/88 121/197/88 119/218/88
f 119/218/89 121/197/89 120/219/89
f 120/219/90 121/197/90 122/220/90
f 122/220/91 121/197/91 123/221/91
f 123/221/92 121/197/92 124/222/92
f 124/222/93 121/197/93 125/223/93
f 125/223/94 121/197/94 126/224/94
f 126/224/95 121/197/95 127/225/95
f 127/225/96 121/197/96 128/226/96
f 128/226/97 121/197/97 129/227/97
f 129/227/98 121/197/98 130/228/98
f 130/228/99 121/197/99 98/196/99
f 98/229/100 99/230/100 100/231/100 101/232/100 102/233/100 103/234/100 104/235/100 105/236/100 106/237/100 107/238/100 108/239/100 109/240/100 110/241/100 111/242/100 112/243/100 113/244/100 114/245/100 115/246/100 116/247/100 117/248/100 118/249/100 119/250/100 120/251/100 122/252/100 123/253/100 124/254/100 125/255/100 126/256/100 127/257/100 128/258/100 129/259/100 130/260/100
o Cylinder.001
v 0.000000 1.076291 -0.400000
v 0.000000 3.616430 -0.400000
v 0.078036 1.076291 -0.392314
v 0.078036 3.616430 -0.392314
v 0.153073 1.076291 -0.369552
v 0.153073 3.616430 -0.369552
v 0.222228 1.076291 -0.332588
v 0.222228 3.616430 -0.332588
v 0.282843 1.076291 -0.282843
v 0.282843 3.616430 -0.282843
v 0.332588 1.076291 -0.222228
v 0.332588 3.616430 -0.222228
v 0.369552 1.076291 -0.153073
v 0.369552 3.616430 -0.153073
v 0.392314 1.076291 -0.078036
v 0.392314 3.616430 -0.078036
v 0.400000 1.076291 -0.000000
v 0.400000 3.616430 -0.000000
v 0.392314 1.076291 0.078036
v 0.392314 3.616430 0.078036
v 0.369552 1.076291 0.153073
v 0.369552 3.616430 0.153073
v 0.332588 1.076291 0.222228
v 0.332588 3.616430 0.222228
v 0.282843 1.076291 0.282843
v 0.282843 3.616430 0.282843
v 0.222228 1.076291 0.332588
v 0.222228 3.616430 0.332588
v 0.153073 1.076291 0.369552
v 0.153073 3.616430 0.369552
v 0.078036 1.076291 0.392314
v 0.078036 3.616430 0.392314
v -0.000000 1.076291 0.400000
v -0.000000 3.616430 0.400000
v -0.078036 1.076291 0.392314
v -0.078036 3.616430 0.392314
v -0.153074 1.076291 0.369552
v -0.153074 3.616430 0.369552
v -0.222228 1.076291 0.332588
v -0.222228 3.616430 0.332588
v -0.282843 1.076291 0.282843
v -0.282843 3.616430 0.282843
v -0.332588 1.076291 0.222228
v -0.332588 3.616430 0.222228
v -0.369552 1.076291 0.153073
v -0.369552 3.616430 0.153073
v -0.392314 1.076291 0.078036
v -0.392314 3.616430 0.078036
v -0.400000 1.076291 -0.000000
v -0.400000 3.616430 -0.000000
v -0.392314 1.076291 -0.078037
v -0.392314 3.616430 -0.078037
v -0.369552 1.076291 -0.153074
v -0.369552 3.616430 -0.153074
v -0.332588 1.076291 -0.222229
v -0.332588 3.616430 -0.222229
v -0.282842 1.076291 -0.282843
v -0.282842 3.616430 -0.282843
v -0.222228 1.076291 -0.332588
v -0.222228 3.616430 -0.332588
v -0.153073 1.076291 -0.369552
v -0.153073 3.616430 -0.369552
v -0.078036 1.076291 -0.392314
v -0.078036 3.616430 -0.392314
vt 1.000000 0.500000
vt 1.000000 1.000000
vt 0.968750 1.000000
vt 0.968750 0.500000
vt 0.937500 1.000000
vt 0.937500 0.500000
vt 0.906250 1.000000
vt 0.906250 0.500000
vt 0.875000 1.000000
vt 0.875000 0.500000
vt 0.843750 1.000000
vt 0.843750 0.500000
vt 0.812500 1.000000
vt 0.812500 0.500000
vt 0.781250 1.000000
vt 0.781250 0.500000
vt 0.750000 1.000000
vt 0.750000 0.500000
vt 0.718750 1.000000
vt 0.718750 0.500000
vt 0.687500 1.000000
vt 0.687500 0.500000
vt 0.656250 1.000000
vt 0.656250 0.500000
vt 0.625000 1.000000
vt 0.625000 0.500000
vt 0.593750 1.000000
vt 0.593750 0.500000
vt 0.562500 1.000000
vt 0.562500 0.500000
vt 0.531250 1.000000
vt 0.531250 0.500000
vt 0.500000 1.000000
vt 0.500000 0.500000
vt 0.468750 1.000000
vt 0.468750 0.500000
vt 0.437500 1.000000
vt 0.437500 0.500000
vt 0.406250 1.000000
vt 0.406250 0.500000
vt 0.375000 1.000000
vt 0.375000 0.500000
vt 0.343750 1.000000
vt 0.343750 0.500000
vt 0.312500 1.000000
vt 0.312500 0.500000
vt 0.281250 1.000000
vt 0.281250 0.500000
vt 0.250000 1.000000
vt 0.250000 0.500000
vt 0.218750 1.000000
vt 0.218750 0.500000
vt 0.187500 1.000000
vt 0.187500 0.500000
vt 0.156250 1.000000
vt 0.156250 0.500000
vt 0.125000 1.000000
vt 0.125000 0.500000
vt 0.093750 1.000000
vt 0.093750 0.500000
vt 0.062500 1.000000
vt 0.062500 0.500000
vt 0.296822 0.485388
vt 0.250000 0.490000
vt 0.203179 0.485389
vt 0.158156 0.471731
vt 0.116663 0.449553
vt 0.080295 0.419706
vt 0.050447 0.383337
vt 0.028269 0.341844
vt 0.014612 0.296822
vt 0.010000 0.250000
vt 0.014611 0.203179
vt 0.028269 0.158156
vt 0.050447 0.116663
vt 0.080294 0.080294
vt 0.116663 0.050447
vt 0.158156 0.028269
vt 0.203178 0.014612
vt 0.250000 0.010000
vt 0.296822 0.014612
vt 0.341844 0.028269
vt 0.383337 0.050447
vt 0.419706 0.080294
vt 0.449553 0.116663
vt 0.471731 0.158156
vt 0.485388 0.203178
vt 0.490000 0.250000
vt 0.485388 0.296822
vt 0.471731 0.341844
vt 0.449553 0.383337
vt 0.419706 0.419706
vt 0.383337 0.449553
vt 0.341844 0.471731
vt 0.031250 1.000000
vt 0.031250 0.500000
vt 0.000000 1.000000
vt 0.000000 0.500000
vt 0.750000 0.490000
vt 0.796822 0.485388
vt 0.841844 0.471731
vt 0.883337 0.449553
vt 0.919706 0.419706
vt 0.949553 0.383337
vt 0.971731 0.341844
vt 0.985388 0.296822
vt 0.990000 0.250000
vt 0.985388 0.203178
vt 0.971731 0.158156
vt 0.949553 0.116663
vt 0.919706 0.080294
vt 0.883337 0.050447
vt 0.841844 0.028269
vt 0.796822 0.014612
vt 0.750000 0.010000
vt 0.703178 0.014612
vt 0.658156 0.028269
vt 0.616663 0.050447
vt 0.580294 0.080294
vt 0.550447 0.116663
vt 0.528269 0.158156
vt 0.514611 0.203179
vt 0.510000 0.250000
vt 0.514612 0.296822
vt 0.528269 0.341844
vt 0.550447 0.383337
vt 0.580295 0.419706
vt 0.616663 0.449553
vt 0.658156 0.471731
vt 0.703179 0.485389
vn 0.0980 0.0000 -0.9952
vn 0.2903 0.0000 -0.9569
vn 0.4714 0.0000 -0.8819
vn 0.6344 0.0000 -0.7730
vn 0.7730 0.0000 -0.6344
vn 0.8819 0.0000 -0.4714
vn 0.9569 0.0000 -0.2903
vn 0.9952 0.0000 -0.0980
vn 0.9952 0.0000 0.0980
vn 0.9569 0.0000 0.2903
vn 0.8819 0.0000 0.4714
vn 0.7730 0.0000 0.6344
vn 0.6344 0.0000 0.7730
vn 0.4714 0.0000 0.8819
vn 0.2903 0.0000 0.9569
vn 0.0980 0.0000 0.9952
vn -0.0980 0.0000 0.9952
vn -0.2903 0.0000 0.9569
vn -0.4714 0.0000 0.8819
vn -0.6344 0.0000 0.7730
vn -0.7730 0.0000 0.6344
vn -0.8819 0.0000 0.4714
vn -0.9569 0.0000 0.2903
vn -0.9952 0.0000 0.0980
vn -0.9952 0.0000 -0.0980
vn -0.9569 0.0000 -0.2903
vn -0.8819 0.0000 -0.4714
vn -0.7730 0.0000 -0.6344
vn -0.6344 0.0000 -0.7730
vn -0.4714 0.0000 -0.8819
vn 0.0000 1.0000 0.0000
vn -0.2903 0.0000 -0.9569
vn -0.0980 0.0000 -0.9952
vn 0.0000 -1.0000 -0.0000
usemtl Material.003
s off
f 131/261/101 132/262/101 134/263/101 133/264/101
f 133/264/102 134/263/102 136/265/102 135/266/102
f 135/266/103 136/265/103 138/267/103 137/268/103
f 137/268/104 138/267/104 140/269/104 139/270/104
f 139/270/105 140/269/105 142/271/105 141/272/105
f 141/272/106 142/271/106 144/273/106 143/274/106
f 143/274/107 144/273/107 146/275/107 145/276/107
f 145/276/108 146/275/108 148/277/108 147/278/108
f 147/278/109 148/277/109 150/279/109 149/280/109
f 149/280/110 150/279/110 152/281/110 151/282/110
f 151/282/111 152/281/111 154/283/111 153/284/111
f 153/284/112 154/283/112 156/285/112 155/286/112
f 155/286/113 156/285/113 158/287/113 157/288/113
f 157/288/114 158/287/114 160/289/114 159/290/114
f 159/290/115 160/289/115 162/291/115 161/292/115
f 161/292/116 162/291/116 164/293/116 163/294/116
f 163/294/117 164/293/117 166/295/117 165/296/117
f 165/296/118 166/295/118 168/297/118 167/298/118
f 167/298/119 168/297/119 170/299/119 169/300/119
f 169/300/120 170/299/120 172/301/120 171/302/120
f 171/302/121 172/301/121 174/303/121 173/304/121
f 173/304/122 174/303/122 176/305/122 175/306/122
f 175/306/123 176/305/123 178/307/123 177/308/123
f 177/308/124 178/307/124 180/309/124 179/310/124
f 179/310/125 180/309/125 182/311/125 181/312/125
f 181/312/126 182/311/126 184/313/126 183/314/126
f 183/314/127 184/313/127 186/315/127 185/316/127
f 185/316/128 186/315/128 188/317/128 187/318/128
f 187/318/129 188/317/129 190/319/129 189/320/129
f 189/320/130 190/319/130 192/321/130 191/322/130
f 134/323/131 132/324/131 194/325/131 192/326/131 190/327/131 188/328/131 186/329/131 184/330/131 182/331/131 180/332/131 178/333/131 176/334/131 174/335/131 172/336/131 170/337/131 168/338/131 166/339/131 164/340/131 162/341/131 160/342/131 158/343/131 156/344/131 154/345/131 152/346/131 150/347/131 148/348/131 146/349/131 144/350/131 142/351/131 140/352/131 138/353/131 136/354/131
f 191/322/132 192/321/132 194/355/132 193/356/132
f 193/356/133 194/355/133 132/357/133 131/358/133
f 131/359/134 133/360/134 135/361/134 137/362/134 139/363/134 141/364/134 143/365/134 145/366/134 147/367/134 149/368/134 151/369/134 153/370/134 155/371/134 157/372/134 159/373/134 161/374/134 163/375/134 165/376/134 167/377/134 169/378/134 171/379/134 173/380/134 175/381/134 177/382/134 179/383/134 181/384/134 183/385/134 185/386/134 187/387/134 189/388/134 191/389/134 193/390/134
